<svg xmlns="http://www.w3.org/2000/svg" width="14" height="15" viewBox="0 0 14 15">
  <g id="world-line" transform="translate(-2 -2)">
    <path id="Path_399" data-name="Path 399" d="M15.423,11.686a10.3,10.3,0,0,0-.194-1.963h1.627a6.335,6.335,0,0,0-.3-.785H15.039a10.041,10.041,0,0,0-1.306-2.881,5.231,5.231,0,0,0-1.152-.373,8.941,8.941,0,0,1,1.758,3.235H11.9V5.6h-.678V8.923H8.79a8.94,8.94,0,0,1,1.762-3.24A5.221,5.221,0,0,0,9.4,6.052,10.034,10.034,0,0,0,8.09,8.923H6.567a6.336,6.336,0,0,0-.307.8H7.9a10.3,10.3,0,0,0-.194,1.963,10.452,10.452,0,0,0,.226,2.145h-1.6a6.323,6.323,0,0,0,.334.8H8.126a9.825,9.825,0,0,0,1.215,2.631,5.226,5.226,0,0,0,1.179.388,8.969,8.969,0,0,1-1.667-3.019H11.23v3.112h.678V14.631h2.368A8.962,8.962,0,0,1,12.6,17.65a5.231,5.231,0,0,0,1.184-.4A9.822,9.822,0,0,0,15,14.631h1.446a6.316,6.316,0,0,0,.334-.785h-1.6a10.447,10.447,0,0,0,.244-2.16Zm-4.2,2.145H8.632a9.412,9.412,0,0,1-.041-4.123h2.634Zm3.271,0H11.9V9.723h2.634a9.681,9.681,0,0,1,.19,1.963A9.626,9.626,0,0,1,14.5,13.831Z" transform="translate(-2.558 -2.172)" fill="#ff2d4e"/>
    <path id="Path_400" data-name="Path 400" d="M9,2A7.263,7.263,0,0,0,2,9.5,7.263,7.263,0,0,0,9,17a7.263,7.263,0,0,0,7-7.5A7.263,7.263,0,0,0,9,2ZM9,16.063A6.355,6.355,0,0,1,2.875,9.5,6.355,6.355,0,0,1,9,2.938,6.355,6.355,0,0,1,15.125,9.5,6.355,6.355,0,0,1,9,16.063Z" fill="#ff2d4e"/>
  </g>
</svg>
