<svg xmlns="http://www.w3.org/2000/svg" width="25.392" height="25.392" viewBox="0 0 25.392 25.392">
  <g id="world-line" transform="translate(-2 -2)">
    <path id="Path_399" data-name="Path 399" d="M22.352,15.439a15.378,15.378,0,0,0-.341-3.174h2.857A9.76,9.76,0,0,0,24.336,11H21.678a15.648,15.648,0,0,0-2.293-4.658,9.76,9.76,0,0,0-2.023-.6,14.148,14.148,0,0,1,3.087,5.229H16.171V5.6h-1.19v5.372H10.7A14.148,14.148,0,0,1,13.8,5.735a9.744,9.744,0,0,0-2.016.6,15.648,15.648,0,0,0-2.309,4.642H6.8a9.76,9.76,0,0,0-.54,1.293H9.14A15.378,15.378,0,0,0,8.8,15.439a15.608,15.608,0,0,0,.4,3.468H6.387A9.792,9.792,0,0,0,6.974,20.2H9.537a15.331,15.331,0,0,0,2.135,4.253,9.744,9.744,0,0,0,2.071.627,14.212,14.212,0,0,1-2.928-4.88h4.174v5.031h1.19V20.2h4.158a14.2,14.2,0,0,1-2.936,4.88,9.744,9.744,0,0,0,2.079-.643A15.331,15.331,0,0,0,21.614,20.2h2.539a9.792,9.792,0,0,0,.587-1.27H21.924a15.608,15.608,0,0,0,.428-3.491Zm-7.372,3.468H10.426a14.037,14.037,0,0,1-.071-6.665h4.626Zm5.745,0H16.171V12.265H20.8a14.45,14.45,0,0,1,.333,3.174,14.378,14.378,0,0,1-.4,3.468Z" transform="translate(-0.88 -0.743)" fill="#ff2d4e"/>
    <path id="Path_400" data-name="Path 400" d="M14.7,2a12.7,12.7,0,1,0,12.7,12.7A12.7,12.7,0,0,0,14.7,2Zm0,23.805A11.109,11.109,0,1,1,25.805,14.7,11.109,11.109,0,0,1,14.7,25.805Z" fill="#ff2d4e"/>
  </g>
</svg>
